<?xml version="1.0" encoding="UTF-8"?>
<svg xmlns="http://www.w3.org/2000/svg" xmlns:xlink="http://www.w3.org/1999/xlink" width="3415" height="2492" viewBox="0 0 3415 2492">
<path fill-rule="nonzero" fill="rgb(0%, 0%, 0%)" fill-opacity="1" d="M 1578.75 1033.179688 L 126.652344 1033.179688 C 100.011719 1033.179688 78.417969 1054.769531 78.417969 1081.410156 L 78.417969 2419.546875 C 78.417969 2446.1875 100.015625 2467.78125 126.652344 2467.78125 C 610.683594 2467.78125 1094.710938 2467.785156 1578.75 2467.785156 C 1591.539062 2467.785156 1603.808594 2462.703125 1612.851562 2453.65625 C 1621.898438 2444.613281 1626.980469 2432.34375 1626.980469 2419.550781 C 1626.980469 1973.503906 1626.980469 1527.457031 1626.980469 1081.410156 C 1626.980469 1068.621094 1621.898438 1056.351562 1612.851562 1047.308594 C 1603.808594 1038.261719 1591.539062 1033.179688 1578.75 1033.179688 Z M 1833.171875 1040.730469 C 1820.378906 1040.730469 1808.109375 1045.808594 1799.058594 1054.859375 C 1790.019531 1063.898438 1784.929688 1076.171875 1784.929688 1088.960938 L 1784.929688 2427.105469 C 1784.929688 2439.898438 1790.019531 2452.167969 1799.058594 2461.214844 C 1808.109375 2470.257812 1820.378906 2475.339844 1833.171875 2475.339844 C 2317.199219 2475.339844 2801.230469 2475.339844 3285.261719 2475.335938 C 3311.898438 2475.335938 3333.5 2453.742188 3333.5 2427.105469 L 3333.5 1088.96875 C 3333.5 1062.328125 3311.898438 1040.730469 3285.261719 1040.730469 Z M 1833.171875 1040.730469 "/>
<path fill-rule="nonzero" fill="rgb(0%, 0%, 0%)" fill-opacity="1" d="M 126.652344 2419.546875 L 1578.742188 2419.546875 L 1578.742188 1081.40625 L 126.652344 1081.40625 Z M 126.652344 2419.546875 "/>
<path fill-rule="nonzero" fill="rgb(0%, 0%, 0%)" fill-opacity="1" d="M 1833.171875 2427.105469 L 3285.261719 2427.105469 L 3285.261719 1088.964844 L 1833.171875 1088.964844 Z M 1833.171875 2427.105469 "/>
<path fill-rule="nonzero" fill="rgb(0%, 0%, 0%)" fill-opacity="1" d="M 2410.488281 487.339844 C 2420.398438 487.339844 2429.898438 491.28125 2436.910156 498.289062 C 2443.921875 505.300781 2447.859375 514.800781 2447.859375 524.710938 L 2447.859375 2412.097656 C 2447.859375 2422.007812 2443.921875 2431.511719 2436.910156 2438.519531 C 2429.898438 2445.527344 2420.398438 2449.464844 2410.488281 2449.464844 L 1018.128906 2449.460938 C 997.492188 2449.460938 980.765625 2432.734375 980.765625 2412.097656 L 980.765625 524.710938 C 980.765625 504.078125 997.492188 487.351562 1018.128906 487.351562 L 1714.308594 487.351562 Z M 2410.488281 487.339844 "/>
<path fill-rule="nonzero" fill="rgb(99.609375%, 99.609375%, 99.609375%)" fill-opacity="1" d="M 2410.488281 524.710938 L 1018.128906 524.710938 C 1018.128906 1153.839844 1018.128906 1782.96875 1018.128906 2412.097656 C 1482.25 2412.097656 1946.371094 2412.097656 2410.488281 2412.097656 C 2410.488281 1782.96875 2410.488281 1153.839844 2410.488281 524.710938 "/>
<path fill-rule="nonzero" fill="rgb(28.24707%, 77.734375%, 99.609375%)" fill-opacity="1" d="M 1948.480469 1972.800781 C 1948.480469 2119.234375 1948.480469 2265.664062 1948.480469 2412.097656 C 1787.078125 2412.097656 1625.671875 2412.097656 1464.269531 2412.097656 C 1464.261719 2265.667969 1464.261719 2119.234375 1464.261719 1972.804688 L 1706.371094 1972.800781 Z M 1948.480469 1972.800781 "/>
<path fill-rule="nonzero" fill="rgb(60.351562%, 87.889099%, 99.609375%)" fill-opacity="1" d="M 1895.71875 1829.171875 L 2226.847656 1829.171875 L 2226.847656 1498.042969 L 1895.71875 1498.042969 Z M 1895.71875 1829.171875 "/>
<path fill-rule="nonzero" fill="rgb(75.389099%, 92.576599%, 99.609375%)" fill-opacity="1" d="M 1895.730469 1636.757812 L 2226.851562 1822.507812 C 2226.851562 1824.730469 2226.851562 1826.953125 2226.851562 1829.175781 C 2183.398438 1829.175781 2139.960938 1829.175781 2096.511719 1829.171875 L 2096.511719 1829.175781 C 2092.820312 1829.171875 2089.128906 1829.171875 2085.429688 1829.171875 L 1895.730469 1722.753906 C 1895.71875 1694.085938 1895.71875 1665.421875 1895.71875 1636.757812 Z M 1895.730469 1636.757812 "/>
<path fill-rule="nonzero" fill="rgb(75.389099%, 92.576599%, 99.609375%)" fill-opacity="1" d="M 2066.121094 1498.042969 L 2226.851562 1588.207031 C 2226.851562 1616.871094 2226.851562 1645.535156 2226.851562 1674.203125 L 1912.828125 1498.046875 L 2061.289062 1498.042969 Z M 2066.121094 1498.042969 "/>
<path fill-rule="nonzero" fill="rgb(75.389099%, 92.576599%, 99.609375%)" fill-opacity="1" d="M 2410.488281 1697.300781 C 2412.019531 1699.960938 2413.230469 1702.820312 2414.070312 1705.824219 C 2416.769531 1715.398438 2415.539062 1725.648438 2410.679688 1734.324219 L 2410.488281 1734.660156 C 2410.488281 1722.207031 2410.488281 1709.753906 2410.488281 1697.300781 Z M 2410.488281 1697.300781 "/>
<path fill-rule="nonzero" fill="rgb(60.351562%, 87.889099%, 99.609375%)" fill-opacity="1" d="M 1879.128906 1268.480469 L 2210.257812 1268.480469 L 2210.257812 937.351562 L 1879.128906 937.351562 Z M 1879.128906 1268.480469 "/>
<path fill-rule="nonzero" fill="rgb(75.389099%, 92.576599%, 99.609375%)" fill-opacity="1" d="M 1879.128906 1076.070312 L 2210.261719 1261.820312 C 2210.25 1264.039062 2210.25 1266.261719 2210.25 1268.480469 C 2166.808594 1268.480469 2123.359375 1268.480469 2079.910156 1268.480469 C 2076.21875 1268.480469 2072.53125 1268.480469 2068.839844 1268.480469 L 1879.128906 1162.058594 C 1879.128906 1133.398438 1879.128906 1104.730469 1879.128906 1076.070312 Z M 1879.128906 1076.070312 "/>
<path fill-rule="nonzero" fill="rgb(75.389099%, 92.576599%, 99.609375%)" fill-opacity="1" d="M 2049.53125 937.359375 L 2210.261719 1027.519531 C 2210.25 1056.179688 2210.25 1084.851562 2210.25 1113.511719 L 1896.230469 937.359375 Z M 2049.53125 937.359375 "/>
<path fill-rule="nonzero" fill="rgb(60.351562%, 87.889099%, 99.609375%)" fill-opacity="1" d="M 1241.191406 1270.5 L 1572.320312 1270.5 L 1572.320312 939.371094 L 1241.191406 939.371094 Z M 1241.191406 1270.5 "/>
<path fill-rule="nonzero" fill="rgb(75.389099%, 92.576599%, 99.609375%)" fill-opacity="1" d="M 1241.191406 1078.089844 L 1572.320312 1263.839844 C 1572.320312 1266.070312 1572.320312 1268.28125 1572.320312 1270.511719 C 1528.871094 1270.511719 1485.421875 1270.511719 1441.96875 1270.511719 C 1438.28125 1270.511719 1434.589844 1270.511719 1430.898438 1270.511719 L 1241.191406 1164.089844 C 1241.191406 1135.421875 1241.179688 1106.761719 1241.179688 1078.089844 Z M 1241.191406 1078.089844 "/>
<path fill-rule="nonzero" fill="rgb(75.389099%, 92.576599%, 99.609375%)" fill-opacity="1" d="M 1411.589844 939.378906 L 1572.320312 1029.539062 C 1572.320312 1058.210938 1572.320312 1086.871094 1572.320312 1115.53125 L 1258.289062 939.378906 Z M 1411.589844 939.378906 "/>
<path fill-rule="nonzero" fill="rgb(60.351562%, 87.889099%, 99.609375%)" fill-opacity="1" d="M 1237.539062 1821.074219 L 1568.667969 1821.074219 L 1568.667969 1489.945312 L 1237.539062 1489.945312 Z M 1237.539062 1821.074219 "/>
<path fill-rule="nonzero" fill="rgb(75.389099%, 92.576599%, 99.609375%)" fill-opacity="1" d="M 1237.550781 1628.660156 L 1568.671875 1814.414062 C 1568.671875 1816.636719 1568.671875 1818.855469 1568.671875 1821.078125 C 1525.230469 1821.078125 1481.78125 1821.078125 1438.328125 1821.078125 C 1434.640625 1821.078125 1430.941406 1821.078125 1427.25 1821.078125 L 1237.550781 1714.65625 C 1237.539062 1685.992188 1237.539062 1657.328125 1237.539062 1628.660156 Z M 1237.550781 1628.660156 "/>
<path fill-rule="nonzero" fill="rgb(75.389099%, 92.576599%, 99.609375%)" fill-opacity="1" d="M 1407.941406 1489.949219 L 1568.671875 1580.109375 C 1568.671875 1608.777344 1568.671875 1637.441406 1568.671875 1666.105469 L 1254.648438 1489.949219 Z M 1407.941406 1489.949219 "/>
<path fill-rule="nonzero" fill="rgb(99.609375%, 99.609375%, 99.609375%)" fill-opacity="1" d="M 589.183594 2163.832031 L 920.316406 2163.832031 L 920.316406 1832.703125 L 589.183594 1832.703125 Z M 589.183594 2163.832031 "/>
<path fill-rule="nonzero" fill="rgb(99.609375%, 99.609375%, 99.609375%)" fill-opacity="1" d="M 920.3125 1971.421875 L 589.183594 2157.171875 C 589.183594 2159.394531 589.183594 2161.613281 589.183594 2163.835938 C 632.632812 2163.835938 676.082031 2163.835938 719.527344 2163.835938 C 723.21875 2163.835938 726.910156 2163.835938 730.601562 2163.835938 L 920.3125 2057.414062 C 920.3125 2028.75 920.316406 2000.085938 920.316406 1971.421875 Z M 920.3125 1971.421875 "/>
<path fill-rule="nonzero" fill="rgb(99.609375%, 99.609375%, 99.609375%)" fill-opacity="1" d="M 749.914062 1832.707031 L 589.183594 1922.867188 C 589.183594 1951.535156 589.183594 1980.199219 589.183594 2008.863281 L 903.210938 1832.707031 Z M 749.914062 1832.707031 "/>
<path fill-rule="nonzero" fill="rgb(99.609375%, 99.609375%, 99.609375%)" fill-opacity="1" d="M 589.679688 1320.53125 L 920.808594 1320.539062 L 920.808594 1651.667969 L 589.679688 1651.667969 Z M 589.679688 1320.53125 "/>
<path fill-rule="nonzero" fill="rgb(99.609375%, 99.609375%, 99.609375%)" fill-opacity="1" d="M 920.804688 1459.25 L 589.679688 1645.003906 C 589.679688 1647.226562 589.679688 1649.449219 589.679688 1651.667969 C 633.128906 1651.667969 676.574219 1651.667969 720.023438 1651.667969 C 723.714844 1651.667969 727.40625 1651.667969 731.097656 1651.667969 L 920.804688 1545.246094 C 920.808594 1516.582031 920.808594 1487.921875 920.808594 1459.25 Z M 920.804688 1459.25 "/>
<path fill-rule="nonzero" fill="rgb(99.609375%, 99.609375%, 99.609375%)" fill-opacity="1" d="M 750.410156 1320.539062 L 589.679688 1410.699219 C 589.679688 1439.371094 589.679688 1468.03125 589.679688 1496.695312 L 903.703125 1320.539062 Z M 750.410156 1320.539062 "/>
<path fill-rule="nonzero" fill="rgb(99.609375%, 99.609375%, 99.609375%)" fill-opacity="1" d="M 194.226562 1832.703125 L 525.355469 1832.707031 L 525.355469 2163.832031 L 194.226562 2163.835938 Z M 194.226562 1832.703125 "/>
<path fill-rule="nonzero" fill="rgb(99.609375%, 99.609375%, 99.609375%)" fill-opacity="1" d="M 525.355469 1971.421875 L 194.226562 2157.171875 C 194.226562 2159.394531 194.226562 2161.613281 194.226562 2163.835938 C 237.675781 2163.835938 281.121094 2163.835938 324.570312 2163.835938 C 328.261719 2163.835938 331.953125 2163.835938 335.644531 2163.835938 L 525.355469 2057.414062 C 525.355469 2028.75 525.359375 2000.085938 525.359375 1971.421875 Z M 525.355469 1971.421875 "/>
<path fill-rule="nonzero" fill="rgb(99.609375%, 99.609375%, 99.609375%)" fill-opacity="1" d="M 354.957031 1832.707031 L 194.226562 1922.871094 C 194.226562 1951.535156 194.226562 1980.199219 194.226562 2008.863281 L 508.253906 1832.707031 Z M 354.957031 1832.707031 "/>
<path fill-rule="nonzero" fill="rgb(99.609375%, 99.609375%, 99.609375%)" fill-opacity="1" d="M 202.632812 1324 L 533.761719 1324 L 533.761719 1655.125 L 202.632812 1655.128906 Z M 202.632812 1324 "/>
<path fill-rule="nonzero" fill="rgb(99.609375%, 99.609375%, 99.609375%)" fill-opacity="1" d="M 533.757812 1462.710938 L 202.628906 1648.464844 C 202.632812 1650.6875 202.632812 1652.90625 202.632812 1655.128906 C 246.078125 1655.128906 289.527344 1655.128906 332.972656 1655.128906 C 336.664062 1655.128906 340.355469 1655.128906 344.046875 1655.128906 L 533.757812 1548.707031 C 533.761719 1520.042969 533.761719 1491.378906 533.761719 1462.710938 Z M 533.757812 1462.710938 "/>
<path fill-rule="nonzero" fill="rgb(99.609375%, 99.609375%, 99.609375%)" fill-opacity="1" d="M 363.359375 1324 L 202.628906 1414.160156 C 202.632812 1442.828125 202.632812 1471.488281 202.632812 1500.15625 L 516.65625 1324 Z M 363.359375 1324 "/>
<path fill-rule="nonzero" fill="rgb(56.054688%, 63.084412%, 66.209412%)" fill-opacity="1" d="M 872.207031 1455.148438 C 863.613281 1454.890625 858.445312 1453.199219 856.710938 1450.070312 L 856.128906 1448.390625 L 856.117188 1446.46875 L 856.675781 1444.308594 L 860.488281 1434.050781 Z M 872.207031 1455.148438 "/>
<path fill-rule="nonzero" fill="rgb(0%, 0%, 0%)" fill-opacity="1" d="M 1001.429688 494.898438 C 991.515625 494.898438 982.011719 498.839844 975.003906 505.839844 C 967.996094 512.851562 964.058594 522.359375 964.058594 532.269531 L 964.058594 2419.65625 C 964.058594 2429.566406 967.996094 2439.070312 975.003906 2446.078125 C 982.011719 2453.085938 991.515625 2457.019531 1001.429688 2457.019531 L 2393.789062 2457.019531 C 2414.421875 2457.019531 2431.148438 2440.289062 2431.148438 2419.652344 L 2431.148438 532.269531 C 2431.148438 511.628906 2414.421875 494.898438 2393.789062 494.898438 Z M 1001.429688 494.898438 "/>
<path fill-rule="nonzero" fill="rgb(0%, 0%, 0%)" fill-opacity="1" d="M 1013.140625 523.46875 L 1709.320312 523.46875 L 2405.5 523.480469 C 2405.5 1152.609375 2405.5 1781.734375 2405.5 2410.863281 C 1941.390625 2410.863281 1477.269531 2410.863281 1013.140625 2410.863281 C 1013.140625 1781.734375 1013.140625 1152.601562 1013.140625 523.46875 "/>
<path fill-rule="nonzero" fill="rgb(99.609375%, 99.609375%, 99.609375%)" fill-opacity="1" d="M 1463.429688 1980.355469 C 1463.429688 2126.789062 1463.429688 2273.222656 1463.429688 2419.652344 C 1624.839844 2419.652344 1786.238281 2419.652344 1947.648438 2419.652344 C 1947.660156 2273.222656 1947.660156 2126.789062 1947.660156 1980.359375 L 1705.539062 1980.359375 Z M 1463.429688 1980.355469 "/>
<path fill-rule="nonzero" fill="rgb(99.609375%, 99.609375%, 99.609375%)" fill-opacity="1" d="M 1185.058594 1836.726562 L 1516.1875 1836.726562 L 1516.1875 1505.597656 L 1185.058594 1505.597656 Z M 1185.058594 1836.726562 "/>
<path fill-rule="nonzero" fill="rgb(99.609375%, 99.609375%, 99.609375%)" fill-opacity="1" d="M 1516.191406 1644.3125 L 1185.058594 1830.066406 C 1185.058594 1832.285156 1185.058594 1834.507812 1185.058594 1836.730469 C 1228.511719 1836.730469 1271.960938 1836.730469 1315.410156 1836.730469 C 1319.101562 1836.730469 1322.789062 1836.730469 1326.480469 1836.730469 L 1516.191406 1730.308594 C 1516.191406 1701.644531 1516.191406 1672.976562 1516.191406 1644.3125 Z M 1516.191406 1644.3125 "/>
<path fill-rule="nonzero" fill="rgb(99.609375%, 99.609375%, 99.609375%)" fill-opacity="1" d="M 1345.789062 1505.597656 L 1185.058594 1595.761719 C 1185.058594 1624.425781 1185.058594 1653.09375 1185.058594 1681.757812 L 1499.089844 1505.601562 L 1350.628906 1505.597656 Z M 1345.789062 1505.597656 "/>
<path fill-rule="nonzero" fill="rgb(75.389099%, 92.576599%, 99.609375%)" fill-opacity="1" d="M 1001.421875 1704.855469 C 999.894531 1707.515625 998.6875 1710.375 997.84375 1713.378906 C 995.148438 1722.953125 996.371094 1733.207031 1001.238281 1741.878906 L 1001.429688 1742.21875 C 1001.429688 1729.761719 1001.429688 1717.308594 1001.429688 1704.855469 Z M 1001.421875 1704.855469 "/>
<path fill-rule="nonzero" fill="rgb(99.609375%, 99.609375%, 99.609375%)" fill-opacity="1" d="M 1201.660156 1276.039062 L 1532.789062 1276.039062 L 1532.789062 944.910156 L 1201.660156 944.910156 Z M 1201.660156 1276.039062 "/>
<path fill-rule="nonzero" fill="rgb(99.609375%, 99.609375%, 99.609375%)" fill-opacity="1" d="M 1532.789062 1083.621094 L 1201.660156 1269.371094 C 1201.660156 1271.601562 1201.660156 1273.820312 1201.660156 1276.039062 C 1245.109375 1276.039062 1288.558594 1276.039062 1332 1276.039062 C 1335.691406 1276.039062 1339.378906 1276.039062 1343.070312 1276.039062 L 1532.789062 1169.621094 C 1532.789062 1140.949219 1532.789062 1112.289062 1532.789062 1083.621094 Z M 1532.789062 1083.621094 "/>
<path fill-rule="nonzero" fill="rgb(99.609375%, 99.609375%, 99.609375%)" fill-opacity="1" d="M 1362.390625 944.910156 L 1201.660156 1035.070312 C 1201.660156 1063.738281 1201.660156 1092.398438 1201.660156 1121.070312 L 1515.679688 944.910156 Z M 1362.390625 944.910156 "/>
<path fill-rule="nonzero" fill="rgb(99.609375%, 99.609375%, 99.609375%)" fill-opacity="1" d="M 1839.601562 946.929688 L 2170.730469 946.929688 L 2170.730469 1278.058594 L 1839.601562 1278.058594 Z M 1839.601562 946.929688 "/>
<path fill-rule="nonzero" fill="rgb(99.609375%, 99.609375%, 99.609375%)" fill-opacity="1" d="M 2170.730469 1085.640625 L 1839.601562 1271.398438 C 1839.601562 1273.621094 1839.601562 1275.839844 1839.601562 1278.058594 C 1883.050781 1278.058594 1926.5 1278.058594 1969.941406 1278.058594 C 1973.628906 1278.058594 1977.320312 1278.058594 1981.019531 1278.058594 L 2170.730469 1171.640625 C 2170.730469 1142.980469 2170.730469 1114.308594 2170.730469 1085.640625 Z M 2170.730469 1085.640625 "/>
<path fill-rule="nonzero" fill="rgb(99.609375%, 99.609375%, 99.609375%)" fill-opacity="1" d="M 2000.328125 946.929688 L 1839.601562 1037.089844 C 1839.601562 1065.761719 1839.601562 1094.429688 1839.601562 1123.089844 L 2153.628906 946.929688 Z M 2000.328125 946.929688 "/>
<path fill-rule="nonzero" fill="rgb(99.609375%, 99.609375%, 99.609375%)" fill-opacity="1" d="M 1843.238281 1828.628906 L 2174.367188 1828.628906 L 2174.367188 1497.5 L 1843.238281 1497.5 Z M 1843.238281 1828.628906 "/>
<path fill-rule="nonzero" fill="rgb(99.609375%, 99.609375%, 99.609375%)" fill-opacity="1" d="M 2174.371094 1636.214844 L 1843.238281 1821.96875 C 1843.238281 1824.191406 1843.238281 1826.410156 1843.238281 1828.632812 C 1886.691406 1828.632812 1930.140625 1828.632812 1973.589844 1828.632812 C 1977.28125 1828.632812 1980.96875 1828.632812 1984.660156 1828.632812 L 2174.371094 1722.210938 C 2174.371094 1693.546875 2174.371094 1664.882812 2174.371094 1636.214844 Z M 2174.371094 1636.214844 "/>
<path fill-rule="nonzero" fill="rgb(99.609375%, 99.609375%, 99.609375%)" fill-opacity="1" d="M 2003.96875 1497.503906 L 1843.238281 1587.664062 C 1843.238281 1616.332031 1843.238281 1644.996094 1843.238281 1673.660156 L 2157.269531 1497.503906 Z M 2003.96875 1497.503906 "/>
<path fill-rule="nonzero" fill="rgb(99.609375%, 99.609375%, 99.609375%)" fill-opacity="1" d="M 2491.601562 1840.257812 L 2822.730469 1840.261719 L 2822.730469 2171.390625 L 2491.601562 2171.390625 Z M 2491.601562 1840.257812 "/>
<path fill-rule="nonzero" fill="rgb(99.609375%, 99.609375%, 99.609375%)" fill-opacity="1" d="M 2822.730469 1978.976562 L 2491.601562 2164.726562 C 2491.601562 2166.949219 2491.601562 2169.171875 2491.601562 2171.390625 C 2535.050781 2171.390625 2578.5 2171.390625 2621.941406 2171.390625 C 2625.628906 2171.390625 2629.320312 2171.390625 2633.019531 2171.390625 L 2822.730469 2064.96875 C 2822.730469 2036.304688 2822.730469 2007.640625 2822.730469 1978.976562 Z M 2822.730469 1978.976562 "/>
<path fill-rule="nonzero" fill="rgb(99.609375%, 99.609375%, 99.609375%)" fill-opacity="1" d="M 2652.328125 1840.261719 L 2491.601562 1930.425781 C 2491.601562 1959.089844 2491.601562 1987.753906 2491.601562 2016.417969 L 2805.628906 1840.261719 Z M 2652.328125 1840.261719 "/>
<path fill-rule="nonzero" fill="rgb(99.609375%, 99.609375%, 99.609375%)" fill-opacity="1" d="M 2491.109375 1659.21875 L 2822.238281 1659.21875 L 2822.238281 1328.089844 L 2491.109375 1328.089844 Z M 2491.109375 1659.21875 "/>
<path fill-rule="nonzero" fill="rgb(99.609375%, 99.609375%, 99.609375%)" fill-opacity="1" d="M 2822.230469 1466.800781 L 2491.109375 1652.558594 C 2491.109375 1654.78125 2491.109375 1657 2491.109375 1659.222656 C 2534.558594 1659.222656 2578 1659.222656 2621.449219 1659.222656 C 2625.140625 1659.222656 2628.828125 1659.222656 2632.519531 1659.222656 L 2822.230469 1552.800781 C 2822.230469 1524.136719 2822.230469 1495.472656 2822.230469 1466.800781 Z M 2822.230469 1466.800781 "/>
<path fill-rule="nonzero" fill="rgb(99.609375%, 99.609375%, 99.609375%)" fill-opacity="1" d="M 2651.839844 1328.089844 L 2491.109375 1418.25 C 2491.109375 1446.921875 2491.109375 1475.589844 2491.109375 1504.25 L 2805.128906 1328.089844 Z M 2651.839844 1328.089844 "/>
<path fill-rule="nonzero" fill="rgb(99.609375%, 99.609375%, 99.609375%)" fill-opacity="1" d="M 2886.558594 1840.257812 L 3217.691406 1840.261719 L 3217.691406 2171.390625 L 2886.558594 2171.390625 Z M 2886.558594 1840.257812 "/>
<path fill-rule="nonzero" fill="rgb(99.609375%, 99.609375%, 99.609375%)" fill-opacity="1" d="M 3217.679688 1978.976562 L 2886.558594 2164.726562 C 2886.558594 2166.949219 2886.558594 2169.171875 2886.558594 2171.390625 C 2930 2171.390625 2973.449219 2171.390625 3016.898438 2171.390625 C 3020.589844 2171.390625 3024.28125 2171.390625 3027.96875 2171.390625 L 3217.679688 2064.96875 C 3217.691406 2036.304688 3217.691406 2007.640625 3217.691406 1978.976562 Z M 3217.679688 1978.976562 "/>
<path fill-rule="nonzero" fill="rgb(99.609375%, 99.609375%, 99.609375%)" fill-opacity="1" d="M 3047.289062 1840.261719 L 2886.558594 1930.425781 C 2886.558594 1959.089844 2886.558594 1987.753906 2886.558594 2016.417969 L 3200.578125 1840.261719 Z M 3047.289062 1840.261719 "/>
<path fill-rule="nonzero" fill="rgb(99.609375%, 99.609375%, 99.609375%)" fill-opacity="1" d="M 2878.148438 1662.679688 L 3209.28125 1662.679688 L 3209.28125 1331.550781 L 2878.148438 1331.550781 Z M 2878.148438 1662.679688 "/>
<path fill-rule="nonzero" fill="rgb(99.609375%, 99.609375%, 99.609375%)" fill-opacity="1" d="M 3209.28125 1470.269531 L 2878.148438 1656.019531 C 2878.148438 1658.242188 2878.148438 1660.460938 2878.148438 1662.683594 C 2921.601562 1662.683594 2965.050781 1662.683594 3008.5 1662.683594 C 3012.191406 1662.683594 3015.878906 1662.683594 3019.570312 1662.683594 L 3209.28125 1556.261719 C 3209.28125 1527.597656 3209.28125 1498.933594 3209.28125 1470.269531 Z M 3209.28125 1470.269531 "/>
<path fill-rule="nonzero" fill="rgb(99.609375%, 99.609375%, 99.609375%)" fill-opacity="1" d="M 3038.878906 1331.550781 L 2878.148438 1421.710938 C 2878.148438 1450.378906 2878.148438 1479.050781 2878.148438 1507.710938 L 3192.179688 1331.550781 Z M 3038.878906 1331.550781 "/>
<path fill-rule="nonzero" fill="rgb(0%, 0%, 0%)" fill-opacity="1" d="M 1668.859375 1980.210938 L 1734.230469 1980.210938 C 1734.230469 2132.046875 1734.230469 2283.886719 1734.230469 2435.722656 C 1712.441406 2435.722656 1690.648438 2435.722656 1668.859375 2435.722656 C 1668.859375 2283.886719 1668.859375 2132.046875 1668.859375 1980.210938 "/>
<path fill-rule="nonzero" fill="rgb(0%, 0%, 0%)" fill-opacity="1" d="M 0.242188 2378.792969 L 3414.859375 2378.792969 C 3414.859375 2416.496094 3414.859375 2454.199219 3414.859375 2491.902344 C 2276.648438 2491.90625 1138.441406 2491.90625 0.242188 2491.90625 C 0.242188 2454.199219 0.242188 2416.496094 0.242188 2378.792969 "/>
<path fill-rule="nonzero" fill="rgb(0%, 0%, 0%)" fill-opacity="1" d="M 1336.820312 0.710938 C 1326.429688 0.710938 1316.480469 4.839844 1309.140625 12.179688 C 1301.789062 19.519531 1297.671875 29.480469 1297.671875 39.859375 C 1297.671875 268.738281 1297.671875 497.621094 1297.671875 726.5 L 1297.671875 726.511719 C 1297.671875 736.890625 1301.800781 746.839844 1309.140625 754.191406 C 1316.480469 761.53125 1326.429688 765.648438 1336.820312 765.648438 L 2023.460938 765.648438 C 2045.078125 765.648438 2062.609375 748.121094 2062.609375 726.5 C 2062.609375 497.621094 2062.609375 268.738281 2062.609375 39.859375 C 2062.609375 18.238281 2045.078125 0.71875 2023.460938 0.71875 L 1680.140625 0.710938 Z M 1336.820312 0.710938 "/>
<path fill-rule="nonzero" fill="rgb(99.609375%, 99.609375%, 99.609375%)" fill-opacity="1" d="M 1336.820312 39.859375 L 2023.460938 39.859375 L 2023.460938 726.5 C 1794.578125 726.5 1565.699219 726.5 1336.820312 726.5 C 1336.820312 497.621094 1336.820312 268.738281 1336.820312 39.859375 "/>
<path fill-rule="nonzero" fill="rgb(0%, 0%, 0%)" fill-opacity="1" d="M 1595.46875 155.238281 L 1763.460938 155.238281 L 1763.460938 603.789062 C 1707.46875 603.789062 1651.46875 603.789062 1595.46875 603.789062 C 1595.46875 454.269531 1595.46875 304.761719 1595.46875 155.238281 "/>
<path fill-rule="nonzero" fill="rgb(0%, 0%, 0%)" fill-opacity="1" d="M 1909.820312 287.828125 L 1909.820312 455.820312 C 1760.300781 455.820312 1610.78125 455.820312 1461.269531 455.820312 C 1461.269531 399.820312 1461.269531 343.820312 1461.269531 287.828125 C 1610.78125 287.828125 1760.300781 287.828125 1909.820312 287.828125 "/>
</svg>
